<?xml version="1.0" encoding="UTF-8" standalone="no"?>
<!DOCTYPE svg PUBLIC "-//W3C//DTD SVG 1.1//EN"
 "http://www.w3.org/Graphics/SVG/1.1/DTD/svg11.dtd">
<!-- Generated by graphviz version 7.1.0 (20230121.1956)
 -->
<!-- Pages: 1 -->
<svg width="482pt" height="260pt"
 viewBox="0.00 0.00 482.00 259.91" xmlns="http://www.w3.org/2000/svg" xmlns:xlink="http://www.w3.org/1999/xlink">
<g id="graph0" class="graph" transform="scale(1 1) rotate(0) translate(4 255.91)">
<polygon fill="white" stroke="none" points="-4,4 -4,-255.91 478,-255.91 478,4 -4,4"/>
<g id="clust2" class="cluster">
<title>clusterlags (2) x vars (3) x cross_vars (3)</title>
<path fill="none" stroke="black" d="M268,-129.95C268,-129.95 454,-129.95 454,-129.95 460,-129.95 466,-135.95 466,-141.95 466,-141.95 466,-231.91 466,-231.91 466,-237.91 460,-243.91 454,-243.91 454,-243.91 268,-243.91 268,-243.91 262,-243.91 256,-237.91 256,-231.91 256,-231.91 256,-141.95 256,-141.95 256,-135.95 262,-129.95 268,-129.95"/>
<text text-anchor="middle" x="361" y="-137.75" font-family="Times New Roman,serif" font-size="14.00">lags (2) x vars (3) x cross_vars (3)</text>
</g>
<g id="clust1" class="cluster">
<title>clustervars (3)</title>
<path fill="none" stroke="black" d="M20,-129.95C20,-129.95 236,-129.95 236,-129.95 242,-129.95 248,-135.95 248,-141.95 248,-141.95 248,-231.91 248,-231.91 248,-237.91 242,-243.91 236,-243.91 236,-243.91 20,-243.91 20,-243.91 14,-243.91 8,-237.91 8,-231.91 8,-231.91 8,-141.95 8,-141.95 8,-135.95 14,-129.95 20,-129.95"/>
<text text-anchor="middle" x="218.5" y="-137.75" font-family="Times New Roman,serif" font-size="14.00">vars (3)</text>
</g>
<g id="clust3" class="cluster">
<title>clustertime (198) x vars (3)</title>
<path fill="none" stroke="black" d="M141,-8C141,-8 247,-8 247,-8 253,-8 259,-14 259,-20 259,-20 259,-109.95 259,-109.95 259,-115.95 253,-121.95 247,-121.95 247,-121.95 141,-121.95 141,-121.95 135,-121.95 129,-115.95 129,-109.95 129,-109.95 129,-20 129,-20 129,-14 135,-8 141,-8"/>
<text text-anchor="middle" x="194" y="-15.8" font-family="Times New Roman,serif" font-size="14.00">time (198) x vars (3)</text>
</g>
<!-- intercept -->
<g id="node1" class="node">
<title>intercept</title>
<ellipse fill="none" stroke="black" cx="194" cy="-198.43" rx="45.92" ry="37.45"/>
<text text-anchor="middle" x="194" y="-209.73" font-family="Times New Roman,serif" font-size="14.00">intercept</text>
<text text-anchor="middle" x="194" y="-194.73" font-family="Times New Roman,serif" font-size="14.00">~</text>
<text text-anchor="middle" x="194" y="-179.73" font-family="Times New Roman,serif" font-size="14.00">Normal</text>
</g>
<!-- obs -->
<g id="node4" class="node">
<title>obs</title>
<ellipse fill="lightgrey" stroke="black" cx="194" cy="-76.48" rx="41.02" ry="37.45"/>
<text text-anchor="middle" x="194" y="-87.78" font-family="Times New Roman,serif" font-size="14.00">obs</text>
<text text-anchor="middle" x="194" y="-72.78" font-family="Times New Roman,serif" font-size="14.00">~</text>
<text text-anchor="middle" x="194" y="-57.78" font-family="Times New Roman,serif" font-size="14.00">Normal</text>
</g>
<!-- intercept&#45;&gt;obs -->
<g id="edge1" class="edge">
<title>intercept&#45;&gt;obs</title>
<path fill="none" stroke="black" d="M194,-160.79C194,-149.73 194,-137.42 194,-125.72"/>
<polygon fill="black" stroke="black" points="197.5,-125.82 194,-115.82 190.5,-125.82 197.5,-125.82"/>
</g>
<!-- noise -->
<g id="node2" class="node">
<title>noise</title>
<ellipse fill="none" stroke="black" cx="73" cy="-198.43" rx="57.05" ry="37.45"/>
<text text-anchor="middle" x="73" y="-209.73" font-family="Times New Roman,serif" font-size="14.00">noise</text>
<text text-anchor="middle" x="73" y="-194.73" font-family="Times New Roman,serif" font-size="14.00">~</text>
<text text-anchor="middle" x="73" y="-179.73" font-family="Times New Roman,serif" font-size="14.00">HalfNormal</text>
</g>
<!-- noise&#45;&gt;obs -->
<g id="edge2" class="edge">
<title>noise&#45;&gt;obs</title>
<path fill="none" stroke="black" d="M103.01,-166.3C114.21,-154.8 127.11,-141.7 139,-129.95 145.07,-123.95 151.59,-117.64 157.94,-111.54"/>
<polygon fill="black" stroke="black" points="159.94,-114.47 164.75,-105.03 155.1,-109.41 159.94,-114.47"/>
</g>
<!-- lag_coefs -->
<g id="node3" class="node">
<title>lag_coefs</title>
<ellipse fill="none" stroke="black" cx="314" cy="-198.43" rx="50.41" ry="37.45"/>
<text text-anchor="middle" x="314" y="-209.73" font-family="Times New Roman,serif" font-size="14.00">lag_coefs</text>
<text text-anchor="middle" x="314" y="-194.73" font-family="Times New Roman,serif" font-size="14.00">~</text>
<text text-anchor="middle" x="314" y="-179.73" font-family="Times New Roman,serif" font-size="14.00">Normal</text>
</g>
<!-- lag_coefs&#45;&gt;obs -->
<g id="edge3" class="edge">
<title>lag_coefs&#45;&gt;obs</title>
<path fill="none" stroke="black" d="M286.8,-166.64C276.18,-154.93 263.74,-141.61 252,-129.95 245.63,-123.63 238.68,-117.08 231.88,-110.83"/>
<polygon fill="black" stroke="black" points="234.27,-108.27 224.52,-104.14 229.57,-113.45 234.27,-108.27"/>
</g>
</g>
</svg>
